# xmcd
#
# Track frame offsets:
#	150
#	17147
#	30750
#	48252
#	63007
#	85242
#	100600
#	108867
#	127020
#	142612
#	157772
#	173292
#	188100
#	202427
#	218480
#
# Disc length: 3095 seconds
# Revision: 0
# Processed by: cddbd v1.5.2PL0 Copyright (c) Steve Scherf et al.
# Submitted via: dBpowerAMP V12.0
#
DISCID=ad0c150f
DTITLE=Krüger Brothers - Choices
DYEAR=2004
DGENRE=Country
TTITLE0=Choices
TTITLE1=Access All Areas
TTITLE2=Grandfather's Clock
TTITLE3=Mirjam
TTITLE4=Blues Stay Away From me
TTITLE5=Black Mountain Rag
TTITLE6=Take Me In Your Arms and Hold Me
TTITLE7=Bettie Mae
TTITLE8=Angeline the Baker
TTITLE9=Nobody's Fault But Mine
TTITLE10=House of Gold
TTITLE11=Della and the Dealer
TTITLE12=Peace in the Valley
TTITLE13=Moon Over Switzerland
TTITLE14=Pull That Brake
EXTD=
EXTT0=
EXTT1=
EXTT2=
EXTT3=
EXTT4=
EXTT5=
EXTT6=
EXTT7=
EXTT8=
EXTT9=
EXTT10=
EXTT11=
EXTT12=
EXTT13=
EXTT14=
PLAYORDER=
